<?xml version="1.0" encoding="utf-8"?>
<!-- Generator: Adobe Illustrator 22.0.1, SVG Export Plug-In . SVG Version: 6.00 Build 0)  -->
<svg version="1.1" id="Capa_1" xmlns="http://www.w3.org/2000/svg" xmlns:xlink="http://www.w3.org/1999/xlink" x="0px" y="0px"
	 viewBox="0 0 512 512" style="enable-background:new 0 0 512 512;" xml:space="preserve">
<style type="text/css">
	.st0{fill:#FFFFFF;}
</style>
<g>
	<g>
		<path class="st0" d="M60.9,4.3h-9.7C23.3,4.3,2.2,25.1,0,55.5V448c0,4.6,3.6,8.4,8.2,8.5c0.1,0,0.2,0,0.3,0c4.5,0,8.2-3.4,8.5-7.9
			c1.5-20.5,15.5-34.8,34.2-34.8h9.7c13.5,0,24.5-11,24.5-24.5V28.7C85.3,15.2,74.4,4.3,60.9,4.3z M68.3,389.4
			c0,4.1-3.3,7.4-7.4,7.4h-9.7c-13.4,0-25.2,4.8-34.1,13.1l0-353.8c1.5-20.5,15.5-34.8,34.2-34.8h9.7c4.1,0,7.4,3.3,7.4,7.4V389.4z"
			/>
	</g>
</g>
<g>
	<g>
		<path class="st0" d="M512,54.8c-2.2-29.8-23.2-50.6-51.2-50.6h-9.7c-13.5,0-24.5,11-24.5,24.5v360.7c0,13.5,11,24.5,24.5,24.5h9.7
			c18.6,0,32.7,14.3,34.2,34.8c0.3,4.5,4.1,7.9,8.5,7.9c0.1,0,0.2,0,0.3,0c4.6-0.2,8.2-3.9,8.2-8.5L512,54.8z M494.9,409.9
			c-8.9-8.3-20.7-13.1-34.1-13.1h-9.7c-4.1,0-7.4-3.3-7.4-7.4V28.7c0-4.1,3.3-7.4,7.4-7.4h9.7c18.6,0,32.7,14.3,34.1,34.1V409.9z"/>
	</g>
</g>
<g>
	<g>
		<path class="st0" d="M460.8,396.8h-9.7c-4.1,0-7.4-3.3-7.4-7.4V55.5c0-4.7-3.8-8.5-8.5-8.5H76.8c-4.7,0-8.5,3.8-8.5,8.5v333.9
			c0,4.1-3.3,7.4-7.4,7.4h-9.7c-27.9,0-49,20.8-51.2,51.2c0,32.9,26.8,59.7,59.7,59.7h392.5c32.9,0,59.7-26.8,59.7-60.4
			C509.8,417.6,488.7,396.8,460.8,396.8z M452.3,490.7H59.7c-23.5,0-42.7-19.1-42.7-42c1.5-20.5,15.5-34.8,34.2-34.8h9.7
			c13.5,0,24.5-11,24.5-24.5V64h341.3v325.4c0,13.5,11,24.5,24.5,24.5h9.7c18.6,0,32.7,14.3,34.1,34.1
			C494.9,471.5,475.8,490.7,452.3,490.7z"/>
	</g>
</g>
<g>
	<g>
		<path class="st0" d="M279.1,160.4l-59.7-59.7c-3.3-3.3-8.7-3.3-12.1,0s-3.3,8.7,0,12.1l59.7,59.7c1.7,1.7,3.8,2.5,6,2.5
			c2.2,0,4.4-0.8,6-2.5C282.4,169.1,282.4,163.7,279.1,160.4z"/>
	</g>
</g>
<g>
	<g>
		<path class="st0" d="M279.1,100.6c-3.3-3.3-8.7-3.3-12.1,0l-59.7,59.7c-3.3,3.3-3.3,8.7,0,12.1c1.7,1.7,3.8,2.5,6,2.5
			c2.2,0,4.4-0.8,6-2.5l59.7-59.7C282.4,109.4,282.4,104,279.1,100.6z"/>
	</g>
</g>
<g>
	<g>
		<path class="st0" d="M179.2,132.3h-17.1c-4.7,0-8.5,3.8-8.5,8.5s3.8,8.5,8.5,8.5h17.1c4.7,0,8.5-3.8,8.5-8.5
			S183.9,132.3,179.2,132.3z"/>
	</g>
</g>
<g>
	<g>
		<path class="st0" d="M119.5,132.3h-17.1c-4.7,0-8.5,3.8-8.5,8.5s3.8,8.5,8.5,8.5h17.1c4.7,0,8.5-3.8,8.5-8.5
			S124.2,132.3,119.5,132.3z"/>
	</g>
</g>
<g>
	<g>
		<path class="st0" d="M440.5,479.6c-1.5-4.5-6.4-6.8-10.9-5.3c-4.5,1.5-6.8,6.4-5.3,10.9c1.6,4.5,2.3,9.2,2.3,14
			c0,4.7,3.8,8.5,8.5,8.5s8.5-3.8,8.5-8.5C443.7,492.5,442.6,485.9,440.5,479.6z"/>
	</g>
</g>
<g>
	<g>
		<path class="st0" d="M204.7,295.9c-1.6-4.4-6.4-6.8-10.9-5.2c-11.5,4-21.8,10.3-30.7,18.8c-3.4,3.3-3.6,8.7-0.3,12.1
			c1.7,1.8,3.9,2.7,6.2,2.7c2.1,0,4.2-0.8,5.9-2.3c7-6.7,15.5-11.9,24.6-15.1C203.9,305.2,206.3,300.3,204.7,295.9z"/>
	</g>
</g>
<g>
	<g>
		<path class="st0" d="M259.5,439.5h-32.7c-4.7,0-8.5,3.8-8.5,8.5s3.8,8.5,8.5,8.5h32.7c4.7,0,8.5-3.8,8.5-8.5
			C268,443.3,264.2,439.5,259.5,439.5z"/>
	</g>
</g>
<g>
	<g>
		<path class="st0" d="M150.4,341.9c-4.5-1.3-9.3,1.3-10.6,5.8c-2.2,7.6-3.3,15.5-3.3,23.5c0,4.2,0.3,8.4,0.9,12.4
			c0.6,4.2,4.3,7.3,8.4,7.3c0.4,0,0.8,0,1.3-0.1c4.7-0.7,7.9-5,7.2-9.7c-0.5-3.3-0.7-6.6-0.7-10c0-6.4,0.9-12.7,2.6-18.8
			C157.6,347.9,154.9,343.2,150.4,341.9z"/>
	</g>
</g>
<g>
	<g>
		<path class="st0" d="M191.2,432.1c-8.6-4.4-16.3-10.6-22.4-18.2c-3-3.7-8.3-4.2-12-1.3c-3.7,3-4.2,8.3-1.3,12
			c7.6,9.4,17.3,17.2,28,22.7c1.2,0.6,2.6,0.9,3.9,0.9c3.1,0,6.1-1.7,7.6-4.7C197,439.4,195.4,434.3,191.2,432.1z"/>
	</g>
</g>
<g>
	<g>
		<path class="st0" d="M269.7,285.9H237c-4.7,0-8.5,3.8-8.5,8.5s3.8,8.5,8.5,8.5h32.7c4.7,0,8.5-3.8,8.5-8.5
			C278.2,289.7,274.4,285.9,269.7,285.9z"/>
	</g>
</g>
<g>
	<g>
		<path class="st0" d="M349.4,282.2c-2.1-4.2-7.3-5.9-11.5-3.7c-8.7,4.4-18.1,6.9-27.8,7.3c-4.7,0.2-8.4,4.2-8.2,8.9
			c0.2,4.6,4,8.2,8.5,8.2c0.1,0,0.3,0,0.4,0c12.2-0.5,23.9-3.6,34.9-9.2C349.9,291.5,351.6,286.4,349.4,282.2z"/>
	</g>
</g>
<g>
	<g>
		<path class="st0" d="M384.4,220.3c-4.7-0.7-9,2.5-9.7,7.2c-1.4,9.6-4.8,18.7-10.1,26.9c-2.6,4-1.4,9.2,2.5,11.8
			c1.4,0.9,3,1.4,4.6,1.4c2.8,0,5.5-1.4,7.2-3.9c6.6-10.3,10.9-21.6,12.7-33.7C392.3,225.3,389.1,221,384.4,220.3z"/>
	</g>
</g>
<g>
	<g>
		<path class="st0" d="M409.4,445.1c-8-3.7-16.5-5.6-25.4-5.6h-10.2c-4.7,0-8.5,3.8-8.5,8.5s3.8,8.5,8.5,8.5H384
			c6.4,0,12.5,1.4,18.1,4c1.2,0.6,2.4,0.8,3.6,0.8c3.2,0,6.3-1.8,7.7-4.9C415.5,452.2,413.7,447.1,409.4,445.1z"/>
	</g>
</g>
<g>
	<g>
		<path class="st0" d="M386.2,185.4c-4.5-11.1-11.6-21.4-20.4-29.7c-3.4-3.2-8.8-3.1-12.1,0.3s-3.1,8.8,0.3,12.1
			c7,6.7,12.7,14.9,16.3,23.8c1.4,3.3,4.5,5.3,7.9,5.3c1.1,0,2.2-0.2,3.2-0.6C385.9,194.8,388,189.8,386.2,185.4z"/>
	</g>
</g>
<g>
	<g>
		<path class="st0" d="M333,439.5h-32.7c-4.7,0-8.5,3.8-8.5,8.5s3.8,8.5,8.5,8.5H333c4.7,0,8.5-3.8,8.5-8.5
			C341.5,443.3,337.7,439.5,333,439.5z"/>
	</g>
</g>
<g>
	<g>
		<path class="st0" d="M326,134.4c-6.2-1.4-12.5-2.1-18.8-2.1c-4.7,0-8.5,3.8-8.5,8.5s3.8,8.5,8.5,8.5c5.1,0,10.1,0.6,15,1.7
			c0.6,0.1,1.3,0.2,1.9,0.2c3.9,0,7.4-2.7,8.3-6.6C333.5,140,330.6,135.4,326,134.4z"/>
	</g>
</g>
<g>
	<g>
		<path class="st0" d="M357.2,401l-29.9-51.2c-3.1-5.2-11.7-5.2-14.7,0L282.8,401c-2.4,4.1-1,9.3,3.1,11.7c4.1,2.4,9.3,1,11.7-3.1
			l22.5-38.6l22.5,38.6c1.6,2.7,4.4,4.2,7.4,4.2c1.5,0,2.9-0.4,4.3-1.2C358.2,410.3,359.6,405.1,357.2,401z"/>
	</g>
</g>
<g>
	<g>
		<path class="st0" d="M320.7,234.6l-8.9-15.3c-3.7-6.4-10.4-10.2-17.8-10.2c-7.4,0-14,3.8-17.8,10.2l-8.9,15.3
			c-3.8,6.4-3.8,14.1-0.1,20.6c3.7,6.5,10.4,10.3,17.8,10.3H303c7.5,0,14.1-3.9,17.8-10.3C324.5,248.7,324.5,241,320.7,234.6z
			 M306,246.7c-0.4,0.7-1.3,1.8-3,1.8h-17.9c-1.8,0-2.7-1.1-3-1.8s-0.9-2,0-3.5l8.9-15.3c0.9-1.5,2.3-1.7,3-1.7c0.7,0,2.1,0.2,3,1.7
			l8.9,15.3C306.9,244.7,306.4,246,306,246.7z"/>
	</g>
</g>
<g>
	<g>
		<path class="st0" d="M252.5,362.6l-8.9-15.3c-3.7-6.4-10.4-10.2-17.8-10.2s-14,3.8-17.8,10.2l-8.9,15.3
			c-3.8,6.4-3.8,14.1-0.1,20.6c3.7,6.5,10.4,10.3,17.8,10.3h17.9c7.4,0,14.1-3.9,17.8-10.3C256.2,376.7,256.2,369,252.5,362.6z
			 M237.7,374.7c-0.4,0.7-1.3,1.8-3,1.8h-17.9c-1.8,0-2.7-1.1-3-1.8c-0.4-0.7-0.9-2,0-3.5l8.9-15.3c0.9-1.5,2.3-1.7,3-1.7
			c0.7,0,2.1,0.2,3,1.7l8.9,15.3C238.6,372.7,238.1,374,237.7,374.7z"/>
	</g>
</g>
<g>
	<g>
		<path class="st0" d="M153.6,174.9c-18.8,0-34.1,15.3-34.1,34.1s15.3,34.1,34.1,34.1s34.1-15.3,34.1-34.1
			C187.7,190.2,172.4,174.9,153.6,174.9z M153.6,226.1c-9.4,0-17.1-7.7-17.1-17.1s7.7-17.1,17.1-17.1s17.1,7.7,17.1,17.1
			C170.7,218.5,163,226.1,153.6,226.1z"/>
	</g>
</g>
<g>
	<g>
		<path class="st0" d="M153.6,226.1c-4.7,0-8.5,3.8-8.5,8.5v25.6c0,4.7,3.8,8.5,8.5,8.5s8.5-3.8,8.5-8.5v-25.6
			C162.1,230,158.3,226.1,153.6,226.1z"/>
	</g>
</g>
</svg>
