<?xml version="1.0" encoding="utf-8"?>
<!-- Generator: Adobe Illustrator 22.0.1, SVG Export Plug-In . SVG Version: 6.00 Build 0)  -->
<svg version="1.1" id="Capa_1" xmlns="http://www.w3.org/2000/svg" xmlns:xlink="http://www.w3.org/1999/xlink" x="0px" y="0px"
	 viewBox="0 0 483.3 483.3" style="enable-background:new 0 0 483.3 483.3;" xml:space="preserve">
<style type="text/css">
	.st0{fill:#FFFFFF;}
</style>
<g>
	<g>
		<rect x="341.7" y="465.7" width="16" height="16"/>
	</g>
</g>
<g>
	<g>
		
			<rect x="313.7" y="338.6" transform="matrix(0.8805 -0.4741 0.4741 0.8805 -150.0916 200.0388)" class="st0" width="16" height="118.1"/>
	</g>
</g>
<g>
	<g>
		<path class="st0" d="M96,231.3l11.3-11.3l-45.7-45.7V149L96,183.3l11.3-11.3l-48-48l-0.1,0.1c-3-3.1-7.9-3.3-11-0.3
			c-0.1,0.1-0.2,0.2-0.2,0.2L0,172l11.3,11.3L45.7,149v25.4L0,220l11.3,11.3L45.7,197v25.4L0,268l11.3,11.3L45.7,245v25.4L0,316
			l11.3,11.3L45.7,293v188.7h16V293L96,327.3l11.3-11.3l-45.7-45.7V245L96,279.3l11.3-11.3l-45.7-45.7V197L96,231.3z"/>
	</g>
</g>
<g>
	<g>
		<path class="st0" d="M472,263.3l11.3-11.3l-45.7-45.7V181l34.3,34.3l11.3-11.3l-48-48l-0.1,0.1c-3-3.1-7.9-3.3-11-0.3
			c-0.1,0.1-0.2,0.2-0.2,0.2l-48,48l11.3,11.3l34.4-34.4v25.4L376,252l11.3,11.3l34.3-34.3v25.4L376,300l11.3,11.3l34.3-34.3v76.7
			l-16.8-35.4c-1.3-2.8-4.1-4.6-7.2-4.6h-104V253l34.3,34.3l11.3-11.3l-45.7-45.7V205l34.3,34.3l11.3-11.3l-45.7-45.7V157l34.3,34.3
			l11.3-11.3l-45.7-45.7V109l34.3,34.3l11.3-11.3l-48-48l-0.1,0.1c-3-3.1-7.9-3.3-11-0.3c-0.1,0.1-0.2,0.2-0.2,0.2l-48,48l11.3,11.3
			l34.4-34.4v25.4L232,180l11.3,11.3l34.3-34.3v25.4L232,228l11.3,11.3l34.3-34.3v25.4L232,276l11.3,11.3l34.3-34.3v60.7h-112
			c-2.3,0-4.4,1-5.9,2.7c-0.5,0.5-0.9,1-1.2,1.6l-80,152c-2.1,3.9-0.5,8.7,3.4,10.8c1.1,0.6,2.4,0.9,3.7,0.9h240v-16h-75.2
			l-71.6-136h213.7l64.4,136h-83.4v16h96c4.4,0,8-3.6,8-8c0-1.2-0.3-2.3-0.8-3.4l-39.2-82.8V277l34.3,34.3l11.3-11.3l-45.7-45.7V229
			L472,263.3z M157.7,465.7H98.9L157.7,354V465.7z M232.4,465.7h-58.8V354L232.4,465.7z"/>
	</g>
</g>
<g>
	<g>
		<path class="st0" d="M153.7,1.7c-4.4,0-8,3.6-8,8c0,2.1,0.8,4.2,2.3,5.7c8.3,7.4,13.6,17.6,15.1,28.6c1.5,13.5-8.2,25.7-21.7,27.2
			c-1.8,0.2-3.7,0.2-5.5,0l0,0c-11-1.5-21.1-6.8-28.6-15.1c-3.1-3.1-8.2-3.1-11.3,0c-1.5,1.5-2.3,3.5-2.3,5.7c0,33.1,26.9,60,60,60
			s60-26.9,60-60S186.8,1.7,153.7,1.7z M193.3,80.8c-10.6,21.9-36.9,31-58.8,20.4c-8.9-4.3-16.1-11.5-20.4-20.4
			c6.4,3.4,13.4,5.5,20.6,6.1c12.1,1.1,24-3.2,32.6-11.7c13.5-14.5,15.8-36.3,5.5-53.3C194.7,32.7,203.9,59,193.3,80.8z"/>
	</g>
</g>
</svg>
